<svg width="256" height="256" viewBox="0 0 256 256" fill="none" xmlns="http://www.w3.org/2000/svg">
<g clip-path="url(#clip0_1349_1643)">
<rect y="26" width="255" height="203" rx="12" fill="url(#paint0_linear_1349_1643)"/>
<rect x="19" y="46" width="217" height="166" rx="3" fill="url(#paint1_linear_1349_1643)"/>
<rect x="17" y="46" width="221" height="166" rx="4" fill="url(#paint2_linear_1349_1643)"/>
<path d="M71 46H234C236.209 46 238 47.7909 238 50V208C238 210.209 236.209 212 234 212H71V46Z" fill="black" fill-opacity="0.2"/>
<path d="M17 99H238V208C238 210.209 236.209 212 234 212H21C18.7909 212 17 210.209 17 208V99Z" fill="black" fill-opacity="0.2"/>
<path d="M17 154H238V208C238 210.209 236.209 212 234 212H21C18.7909 212 17 210.209 17 208V154Z" fill="black" fill-opacity="0.2"/>
<g filter="url(#filter0_d_1349_1643)">
<rect x="51" width="155" height="67" rx="6" fill="url(#paint3_linear_1349_1643)"/>
</g>
<g style="mix-blend-mode:overlay" opacity="0.7">
<path d="M91.0102 50.496L90.7282 50.778L90.5402 50.966L90.3522 51.107L90.1172 51.201H89.9292H76.0642L75.3592 51.154L74.7952 50.872L74.4192 50.59L74.2782 50.449L77.7092 46.877H87.9082L91.1512 50.308L91.0102 50.496ZM74.0902 34.657L74.5602 34.234L74.7482 34.046L75.1712 33.811L75.4062 33.717C75.6255 33.8737 75.7978 34.0147 75.9232 34.14L76.8162 34.939L76.9102 35.033C77.1608 35.221 77.4585 35.5187 77.8032 35.926L78.2262 36.349L77.2862 46.266L73.7142 49.932L73.4792 49.697L73.2442 49.368L72.8682 48.71C72.7115 48.24 72.6018 47.958 72.5392 47.864L72.4452 47.676V47.441L73.9492 34.798L74.0902 34.657ZM92.7492 48.475C92.6552 48.663 92.3105 49.0547 91.7152 49.65C91.6838 49.6187 91.6212 49.5873 91.5272 49.556C91.4332 49.4933 91.2765 49.3367 91.0572 49.086L90.0702 48.052L89.9292 47.958L88.8012 46.783L88.3312 46.219L89.4592 36.02L89.7882 35.691C90.0702 35.4403 90.3522 35.174 90.6342 34.892L90.7282 34.751L90.8222 34.657L91.6212 33.999C91.7152 33.9363 91.8092 33.8893 91.9032 33.858C92.0285 33.7953 92.1068 33.7483 92.1382 33.717L92.5142 33.905L93.0782 34.234L93.1722 34.375L93.3602 34.422L93.9712 34.939L94.2062 35.127L92.8432 47.958L92.7492 48.475ZM91.0102 33.623L90.2582 34.328L90.1642 34.469L89.3182 35.127L88.9422 35.503H78.4142L78.0382 35.221C77.6935 34.939 77.4428 34.6883 77.2862 34.469L77.0982 34.375L77.0042 34.234C76.7535 34.0773 76.5498 33.9207 76.3932 33.764C76.2365 33.576 76.1425 33.4507 76.1112 33.388C76.1112 33.3253 76.0955 33.247 76.0642 33.153C76.1582 32.965 76.2678 32.8397 76.3932 32.777L77.2862 32.025L77.3802 31.884L78.3672 31.179L78.7432 30.85H89.2712C89.4278 30.944 89.5375 31.0537 89.6002 31.179L90.2582 31.884L90.3992 31.978L90.4932 32.072C90.7752 32.354 90.9632 32.589 91.0572 32.777C91.1825 32.871 91.2765 32.9963 91.3392 33.153C91.2138 33.3723 91.1042 33.529 91.0102 33.623ZM93.8772 31.602L93.3602 32.072L93.2662 32.166L92.6082 32.636L92.2322 32.777C92.0128 32.6517 91.8405 32.5263 91.7152 32.401L91.0102 31.79L90.8692 31.696L90.7752 31.508L90.0232 30.709C89.9292 30.5837 89.8352 30.4897 89.7412 30.427C89.6785 30.3643 89.6472 30.3173 89.6472 30.286L90.8222 21.356L91.2452 20.839L92.2792 19.617L92.3732 19.523L92.4672 19.429L93.4542 18.395L94.0652 17.925L94.3002 18.066C94.4568 18.1913 94.5508 18.2853 94.5822 18.348L94.7702 18.583L94.9582 18.771C95.0835 19.0843 95.1932 19.3037 95.2872 19.429L95.4752 19.664L94.1592 31.367L93.8772 31.602ZM75.4062 19.053L75.5472 18.912C75.7978 18.348 75.9858 18.019 76.1112 17.925L76.3932 17.549L79.7772 21.262L78.7432 30.051L78.3202 30.427L77.2862 31.273L77.1452 31.32L76.0642 32.166L75.5472 32.495L75.2652 32.307L74.9832 31.884L74.8892 31.743L74.7952 31.602L74.3722 30.897L74.1842 30.662L75.4062 19.241V19.053ZM77.4742 16.609L77.8972 16.421L78.5082 16.28H91.6212L91.8562 16.327C92.0442 16.327 92.2165 16.4053 92.3732 16.562L92.9372 16.891C93.0312 16.9223 93.0938 16.985 93.1252 17.079C93.1565 17.1417 93.1878 17.1887 93.2192 17.22C93.1878 17.2513 93.1408 17.3297 93.0782 17.455C93.0155 17.5803 92.9058 17.737 92.7492 17.925L91.7622 19.053L91.7152 19.194L90.4932 20.463L90.0232 20.98H80.7172L77.0512 16.938L77.4742 16.609ZM116.851 50.496L116.569 50.778L116.381 50.966L116.193 51.107L115.958 51.201H115.77H101.905L101.2 51.154L100.636 50.872L100.26 50.59L100.119 50.449L103.55 46.877H113.749L116.992 50.308L116.851 50.496ZM99.931 34.657L100.401 34.234L100.589 34.046L101.012 33.811L101.247 33.717C101.466 33.8737 101.639 34.0147 101.764 34.14L102.657 34.939L102.751 35.033C103.002 35.221 103.299 35.5187 103.644 35.926L104.067 36.349L103.127 46.266L99.555 49.932L99.32 49.697L99.085 49.368L98.709 48.71C98.5523 48.24 98.4426 47.958 98.38 47.864L98.286 47.676V47.441L99.79 34.798L99.931 34.657ZM118.59 48.475C118.496 48.663 118.151 49.0547 117.556 49.65C117.525 49.6187 117.462 49.5873 117.368 49.556C117.274 49.4933 117.117 49.3367 116.898 49.086L115.911 48.052L115.77 47.958L114.642 46.783L114.172 46.219L115.3 36.02L115.629 35.691C115.911 35.4403 116.193 35.174 116.475 34.892L116.569 34.751L116.663 34.657L117.462 33.999C117.556 33.9363 117.65 33.8893 117.744 33.858C117.869 33.7953 117.948 33.7483 117.979 33.717L118.355 33.905L118.919 34.234L119.013 34.375L119.201 34.422L119.812 34.939L120.047 35.127L118.684 47.958L118.59 48.475ZM116.851 33.623L116.099 34.328L116.005 34.469L115.159 35.127L114.783 35.503H104.255L103.879 35.221C103.534 34.939 103.284 34.6883 103.127 34.469L102.939 34.375L102.845 34.234C102.594 34.0773 102.391 33.9207 102.234 33.764C102.077 33.576 101.983 33.4507 101.952 33.388C101.952 33.3253 101.936 33.247 101.905 33.153C101.999 32.965 102.109 32.8397 102.234 32.777L103.127 32.025L103.221 31.884L104.208 31.179L104.584 30.85H115.112C115.269 30.944 115.378 31.0537 115.441 31.179L116.099 31.884L116.24 31.978L116.334 32.072C116.616 32.354 116.804 32.589 116.898 32.777C117.023 32.871 117.117 32.9963 117.18 33.153C117.055 33.3723 116.945 33.529 116.851 33.623ZM119.718 31.602L119.201 32.072L119.107 32.166L118.449 32.636L118.073 32.777C117.854 32.6517 117.681 32.5263 117.556 32.401L116.851 31.79L116.71 31.696L116.616 31.508L115.864 30.709C115.77 30.5837 115.676 30.4897 115.582 30.427C115.519 30.3643 115.488 30.3173 115.488 30.286L116.663 21.356L117.086 20.839L118.12 19.617L118.214 19.523L118.308 19.429L119.295 18.395L119.906 17.925L120.141 18.066C120.298 18.1913 120.392 18.2853 120.423 18.348L120.611 18.583L120.799 18.771C120.924 19.0843 121.034 19.3037 121.128 19.429L121.316 19.664L120 31.367L119.718 31.602ZM101.247 19.053L101.388 18.912C101.639 18.348 101.827 18.019 101.952 17.925L102.234 17.549L105.618 21.262L104.584 30.051L104.161 30.427L103.127 31.273L102.986 31.32L101.905 32.166L101.388 32.495L101.106 32.307L100.824 31.884L100.73 31.743L100.636 31.602L100.213 30.897L100.025 30.662L101.247 19.241V19.053ZM103.315 16.609L103.738 16.421L104.349 16.28H117.462L117.697 16.327C117.885 16.327 118.057 16.4053 118.214 16.562L118.778 16.891C118.872 16.9223 118.935 16.985 118.966 17.079C118.997 17.1417 119.029 17.1887 119.06 17.22C119.029 17.2513 118.982 17.3297 118.919 17.455C118.856 17.5803 118.747 17.737 118.59 17.925L117.603 19.053L117.556 19.194L116.334 20.463L115.864 20.98H106.558L102.892 16.938L103.315 16.609ZM125.866 37.336H130.942L130.378 42.036H125.49L125.866 37.336ZM126.618 24.599H131.694L131.13 29.252H126.242L126.618 24.599ZM154.258 50.496L153.976 50.778L153.788 50.966L153.6 51.107L153.365 51.201H153.177H139.312L138.607 51.154L138.043 50.872L137.667 50.59L137.526 50.449L140.957 46.877H151.156L154.399 50.308L154.258 50.496ZM137.338 34.657L137.808 34.234L137.996 34.046L138.419 33.811L138.654 33.717C138.874 33.8737 139.046 34.0147 139.171 34.14L140.064 34.939L140.158 35.033C140.409 35.221 140.707 35.5187 141.051 35.926L141.474 36.349L140.534 46.266L136.962 49.932L136.727 49.697L136.492 49.368L136.116 48.71C135.96 48.24 135.85 47.958 135.787 47.864L135.693 47.676V47.441L137.197 34.798L137.338 34.657ZM155.997 48.475C155.903 48.663 155.559 49.0547 154.963 49.65C154.932 49.6187 154.869 49.5873 154.775 49.556C154.681 49.4933 154.525 49.3367 154.305 49.086L153.318 48.052L153.177 47.958L152.049 46.783L151.579 46.219L152.707 36.02L153.036 35.691C153.318 35.4403 153.6 35.174 153.882 34.892L153.976 34.751L154.07 34.657L154.869 33.999C154.963 33.9363 155.057 33.8893 155.151 33.858C155.277 33.7953 155.355 33.7483 155.386 33.717L155.762 33.905L156.326 34.234L156.42 34.375L156.608 34.422L157.219 34.939L157.454 35.127L156.091 47.958L155.997 48.475ZM154.258 33.623L153.506 34.328L153.412 34.469L152.566 35.127L152.19 35.503H141.662L141.286 35.221C140.942 34.939 140.691 34.6883 140.534 34.469L140.346 34.375L140.252 34.234C140.002 34.0773 139.798 33.9207 139.641 33.764C139.485 33.576 139.391 33.4507 139.359 33.388C139.359 33.3253 139.344 33.247 139.312 33.153C139.406 32.965 139.516 32.8397 139.641 32.777L140.534 32.025L140.628 31.884L141.615 31.179L141.991 30.85H152.519C152.676 30.944 152.786 31.0537 152.848 31.179L153.506 31.884L153.647 31.978L153.741 32.072C154.023 32.354 154.211 32.589 154.305 32.777C154.431 32.871 154.525 32.9963 154.587 33.153C154.462 33.3723 154.352 33.529 154.258 33.623ZM157.125 31.602L156.608 32.072L156.514 32.166L155.856 32.636L155.48 32.777C155.261 32.6517 155.089 32.5263 154.963 32.401L154.258 31.79L154.117 31.696L154.023 31.508L153.271 30.709C153.177 30.5837 153.083 30.4897 152.989 30.427C152.927 30.3643 152.895 30.3173 152.895 30.286L154.07 21.356L154.493 20.839L155.527 19.617L155.621 19.523L155.715 19.429L156.702 18.395L157.313 17.925L157.548 18.066C157.705 18.1913 157.799 18.2853 157.83 18.348L158.018 18.583L158.206 18.771C158.332 19.0843 158.441 19.3037 158.535 19.429L158.723 19.664L157.407 31.367L157.125 31.602ZM138.654 19.053L138.795 18.912C139.046 18.348 139.234 18.019 139.359 17.925L139.641 17.549L143.025 21.262L141.991 30.051L141.568 30.427L140.534 31.273L140.393 31.32L139.312 32.166L138.795 32.495L138.513 32.307L138.231 31.884L138.137 31.743L138.043 31.602L137.62 30.897L137.432 30.662L138.654 19.241V19.053ZM140.722 16.609L141.145 16.421L141.756 16.28H154.869L155.104 16.327C155.292 16.327 155.465 16.4053 155.621 16.562L156.185 16.891C156.279 16.9223 156.342 16.985 156.373 17.079C156.405 17.1417 156.436 17.1887 156.467 17.22C156.436 17.2513 156.389 17.3297 156.326 17.455C156.264 17.5803 156.154 17.737 155.997 17.925L155.01 19.053L154.963 19.194L153.741 20.463L153.271 20.98H143.965L140.299 16.938L140.722 16.609ZM180.099 50.496L179.817 50.778L179.629 50.966L179.441 51.107L179.206 51.201H179.018H165.153L164.448 51.154L163.884 50.872L163.508 50.59L163.367 50.449L166.798 46.877H176.997L180.24 50.308L180.099 50.496ZM163.179 34.657L163.649 34.234L163.837 34.046L164.26 33.811L164.495 33.717C164.714 33.8737 164.887 34.0147 165.012 34.14L165.905 34.939L165.999 35.033C166.25 35.221 166.547 35.5187 166.892 35.926L167.315 36.349L166.375 46.266L162.803 49.932L162.568 49.697L162.333 49.368L161.957 48.71C161.8 48.24 161.691 47.958 161.628 47.864L161.534 47.676V47.441L163.038 34.798L163.179 34.657ZM181.838 48.475C181.744 48.663 181.399 49.0547 180.804 49.65C180.773 49.6187 180.71 49.5873 180.616 49.556C180.522 49.4933 180.365 49.3367 180.146 49.086L179.159 48.052L179.018 47.958L177.89 46.783L177.42 46.219L178.548 36.02L178.877 35.691C179.159 35.4403 179.441 35.174 179.723 34.892L179.817 34.751L179.911 34.657L180.71 33.999C180.804 33.9363 180.898 33.8893 180.992 33.858C181.117 33.7953 181.196 33.7483 181.227 33.717L181.603 33.905L182.167 34.234L182.261 34.375L182.449 34.422L183.06 34.939L183.295 35.127L181.932 47.958L181.838 48.475ZM180.099 33.623L179.347 34.328L179.253 34.469L178.407 35.127L178.031 35.503H167.503L167.127 35.221C166.782 34.939 166.532 34.6883 166.375 34.469L166.187 34.375L166.093 34.234C165.842 34.0773 165.639 33.9207 165.482 33.764C165.325 33.576 165.231 33.4507 165.2 33.388C165.2 33.3253 165.184 33.247 165.153 33.153C165.247 32.965 165.357 32.8397 165.482 32.777L166.375 32.025L166.469 31.884L167.456 31.179L167.832 30.85H178.36C178.517 30.944 178.626 31.0537 178.689 31.179L179.347 31.884L179.488 31.978L179.582 32.072C179.864 32.354 180.052 32.589 180.146 32.777C180.271 32.871 180.365 32.9963 180.428 33.153C180.303 33.3723 180.193 33.529 180.099 33.623ZM182.966 31.602L182.449 32.072L182.355 32.166L181.697 32.636L181.321 32.777C181.102 32.6517 180.929 32.5263 180.804 32.401L180.099 31.79L179.958 31.696L179.864 31.508L179.112 30.709C179.018 30.5837 178.924 30.4897 178.83 30.427C178.767 30.3643 178.736 30.3173 178.736 30.286L179.911 21.356L180.334 20.839L181.368 19.617L181.462 19.523L181.556 19.429L182.543 18.395L183.154 17.925L183.389 18.066C183.546 18.1913 183.64 18.2853 183.671 18.348L183.859 18.583L184.047 18.771C184.172 19.0843 184.282 19.3037 184.376 19.429L184.564 19.664L183.248 31.367L182.966 31.602ZM164.495 19.053L164.636 18.912C164.887 18.348 165.075 18.019 165.2 17.925L165.482 17.549L168.866 21.262L167.832 30.051L167.409 30.427L166.375 31.273L166.234 31.32L165.153 32.166L164.636 32.495L164.354 32.307L164.072 31.884L163.978 31.743L163.884 31.602L163.461 30.897L163.273 30.662L164.495 19.241V19.053ZM166.563 16.609L166.986 16.421L167.597 16.28H180.71L180.945 16.327C181.133 16.327 181.305 16.4053 181.462 16.562L182.026 16.891C182.12 16.9223 182.183 16.985 182.214 17.079C182.245 17.1417 182.277 17.1887 182.308 17.22C182.277 17.2513 182.23 17.3297 182.167 17.455C182.104 17.5803 181.995 17.737 181.838 17.925L180.851 19.053L180.804 19.194L179.582 20.463L179.112 20.98H169.806L166.14 16.938L166.563 16.609Z" fill="black"/>
</g>
<g style="mix-blend-mode:overlay">
<path d="M91.0102 50.496L90.7282 50.778L90.5402 50.966L90.3522 51.107L90.1172 51.201H89.9292H76.0642L75.3592 51.154L74.7952 50.872L74.4192 50.59L74.2782 50.449L77.7092 46.877H87.9082L91.1512 50.308L91.0102 50.496ZM74.0902 34.657L74.5602 34.234L74.7482 34.046L75.1712 33.811L75.4062 33.717C75.6255 33.8737 75.7978 34.0147 75.9232 34.14L76.8162 34.939L76.9102 35.033C77.1608 35.221 77.4585 35.5187 77.8032 35.926L78.2262 36.349L77.2862 46.266L73.7142 49.932L73.4792 49.697L73.2442 49.368L72.8682 48.71C72.7115 48.24 72.6018 47.958 72.5392 47.864L72.4452 47.676V47.441L73.9492 34.798L74.0902 34.657ZM92.7492 48.475C92.6552 48.663 92.3105 49.0547 91.7152 49.65C91.6838 49.6187 91.6212 49.5873 91.5272 49.556C91.4332 49.4933 91.2765 49.3367 91.0572 49.086L90.0702 48.052L89.9292 47.958L88.8012 46.783L88.3312 46.219L89.4592 36.02L89.7882 35.691C90.0702 35.4403 90.3522 35.174 90.6342 34.892L90.7282 34.751L90.8222 34.657L91.6212 33.999C91.7152 33.9363 91.8092 33.8893 91.9032 33.858C92.0285 33.7953 92.1068 33.7483 92.1382 33.717L92.5142 33.905L93.0782 34.234L93.1722 34.375L93.3602 34.422L93.9712 34.939L94.2062 35.127L92.8432 47.958L92.7492 48.475ZM93.8772 31.602L93.3602 32.072L93.2662 32.166L92.6082 32.636L92.2322 32.777C92.0128 32.6517 91.8405 32.5263 91.7152 32.401L91.0102 31.79L90.8692 31.696L90.7752 31.508L90.0232 30.709C89.9292 30.5837 89.8352 30.4897 89.7412 30.427C89.6785 30.3643 89.6472 30.3173 89.6472 30.286L90.8222 21.356L91.2452 20.839L92.2792 19.617L92.3732 19.523L92.4672 19.429L93.4542 18.395L94.0652 17.925L94.3002 18.066C94.4568 18.1913 94.5508 18.2853 94.5822 18.348L94.7702 18.583L94.9582 18.771C95.0835 19.0843 95.1932 19.3037 95.2872 19.429L95.4752 19.664L94.1592 31.367L93.8772 31.602ZM75.4062 19.053L75.5472 18.912C75.7978 18.348 75.9858 18.019 76.1112 17.925L76.3932 17.549L79.7772 21.262L78.7432 30.051L78.3202 30.427L77.2862 31.273L77.1452 31.32L76.0642 32.166L75.5472 32.495L75.2652 32.307L74.9832 31.884L74.8892 31.743L74.7952 31.602L74.3722 30.897L74.1842 30.662L75.4062 19.241V19.053ZM77.4742 16.609L77.8972 16.421L78.5082 16.28H91.6212L91.8562 16.327C92.0442 16.327 92.2165 16.4053 92.3732 16.562L92.9372 16.891C93.0312 16.9223 93.0938 16.985 93.1252 17.079C93.1565 17.1417 93.1878 17.1887 93.2192 17.22C93.1878 17.2513 93.1408 17.3297 93.0782 17.455C93.0155 17.5803 92.9058 17.737 92.7492 17.925L91.7622 19.053L91.7152 19.194L90.4932 20.463L90.0232 20.98H80.7172L77.0512 16.938L77.4742 16.609ZM118.59 48.475C118.496 48.663 118.151 49.0547 117.556 49.65C117.525 49.6187 117.462 49.5873 117.368 49.556C117.274 49.4933 117.117 49.3367 116.898 49.086L115.911 48.052L115.77 47.958L114.642 46.783L114.172 46.219L115.3 36.02L115.629 35.691C115.911 35.4403 116.193 35.174 116.475 34.892L116.569 34.751L116.663 34.657L117.462 33.999C117.556 33.9363 117.65 33.8893 117.744 33.858C117.869 33.7953 117.948 33.7483 117.979 33.717L118.355 33.905L118.919 34.234L119.013 34.375L119.201 34.422L119.812 34.939L120.047 35.127L118.684 47.958L118.59 48.475ZM119.718 31.602L119.201 32.072L119.107 32.166L118.449 32.636L118.073 32.777C117.854 32.6517 117.681 32.5263 117.556 32.401L116.851 31.79L116.71 31.696L116.616 31.508L115.864 30.709C115.77 30.5837 115.676 30.4897 115.582 30.427C115.519 30.3643 115.488 30.3173 115.488 30.286L116.663 21.356L117.086 20.839L118.12 19.617L118.214 19.523L118.308 19.429L119.295 18.395L119.906 17.925L120.141 18.066C120.298 18.1913 120.392 18.2853 120.423 18.348L120.611 18.583L120.799 18.771C120.924 19.0843 121.034 19.3037 121.128 19.429L121.316 19.664L120 31.367L119.718 31.602ZM125.866 37.336H130.942L130.378 42.036H125.49L125.866 37.336ZM126.618 24.599H131.694L131.13 29.252H126.242L126.618 24.599ZM154.258 50.496L153.976 50.778L153.788 50.966L153.6 51.107L153.365 51.201H153.177H139.312L138.607 51.154L138.043 50.872L137.667 50.59L137.526 50.449L140.957 46.877H151.156L154.399 50.308L154.258 50.496ZM155.997 48.475C155.903 48.663 155.559 49.0547 154.963 49.65C154.932 49.6187 154.869 49.5873 154.775 49.556C154.681 49.4933 154.525 49.3367 154.305 49.086L153.318 48.052L153.177 47.958L152.049 46.783L151.579 46.219L152.707 36.02L153.036 35.691C153.318 35.4403 153.6 35.174 153.882 34.892L153.976 34.751L154.07 34.657L154.869 33.999C154.963 33.9363 155.057 33.8893 155.151 33.858C155.277 33.7953 155.355 33.7483 155.386 33.717L155.762 33.905L156.326 34.234L156.42 34.375L156.608 34.422L157.219 34.939L157.454 35.127L156.091 47.958L155.997 48.475ZM154.258 33.623L153.506 34.328L153.412 34.469L152.566 35.127L152.19 35.503H141.662L141.286 35.221C140.942 34.939 140.691 34.6883 140.534 34.469L140.346 34.375L140.252 34.234C140.002 34.0773 139.798 33.9207 139.641 33.764C139.485 33.576 139.391 33.4507 139.359 33.388C139.359 33.3253 139.344 33.247 139.312 33.153C139.406 32.965 139.516 32.8397 139.641 32.777L140.534 32.025L140.628 31.884L141.615 31.179L141.991 30.85H152.519C152.676 30.944 152.786 31.0537 152.848 31.179L153.506 31.884L153.647 31.978L153.741 32.072C154.023 32.354 154.211 32.589 154.305 32.777C154.431 32.871 154.525 32.9963 154.587 33.153C154.462 33.3723 154.352 33.529 154.258 33.623ZM138.654 19.053L138.795 18.912C139.046 18.348 139.234 18.019 139.359 17.925L139.641 17.549L143.025 21.262L141.991 30.051L141.568 30.427L140.534 31.273L140.393 31.32L139.312 32.166L138.795 32.495L138.513 32.307L138.231 31.884L138.137 31.743L138.043 31.602L137.62 30.897L137.432 30.662L138.654 19.241V19.053ZM140.722 16.609L141.145 16.421L141.756 16.28H154.869L155.104 16.327C155.292 16.327 155.465 16.4053 155.621 16.562L156.185 16.891C156.279 16.9223 156.342 16.985 156.373 17.079C156.405 17.1417 156.436 17.1887 156.467 17.22C156.436 17.2513 156.389 17.3297 156.326 17.455C156.264 17.5803 156.154 17.737 155.997 17.925L155.01 19.053L154.963 19.194L153.741 20.463L153.271 20.98H143.965L140.299 16.938L140.722 16.609ZM180.099 50.496L179.817 50.778L179.629 50.966L179.441 51.107L179.206 51.201H179.018H165.153L164.448 51.154L163.884 50.872L163.508 50.59L163.367 50.449L166.798 46.877H176.997L180.24 50.308L180.099 50.496ZM163.179 34.657L163.649 34.234L163.837 34.046L164.26 33.811L164.495 33.717C164.714 33.8737 164.887 34.0147 165.012 34.14L165.905 34.939L165.999 35.033C166.25 35.221 166.547 35.5187 166.892 35.926L167.315 36.349L166.375 46.266L162.803 49.932L162.568 49.697L162.333 49.368L161.957 48.71C161.8 48.24 161.691 47.958 161.628 47.864L161.534 47.676V47.441L163.038 34.798L163.179 34.657ZM181.838 48.475C181.744 48.663 181.399 49.0547 180.804 49.65C180.773 49.6187 180.71 49.5873 180.616 49.556C180.522 49.4933 180.365 49.3367 180.146 49.086L179.159 48.052L179.018 47.958L177.89 46.783L177.42 46.219L178.548 36.02L178.877 35.691C179.159 35.4403 179.441 35.174 179.723 34.892L179.817 34.751L179.911 34.657L180.71 33.999C180.804 33.9363 180.898 33.8893 180.992 33.858C181.117 33.7953 181.196 33.7483 181.227 33.717L181.603 33.905L182.167 34.234L182.261 34.375L182.449 34.422L183.06 34.939L183.295 35.127L181.932 47.958L181.838 48.475ZM182.966 31.602L182.449 32.072L182.355 32.166L181.697 32.636L181.321 32.777C181.102 32.6517 180.929 32.5263 180.804 32.401L180.099 31.79L179.958 31.696L179.864 31.508L179.112 30.709C179.018 30.5837 178.924 30.4897 178.83 30.427C178.767 30.3643 178.736 30.3173 178.736 30.286L179.911 21.356L180.334 20.839L181.368 19.617L181.462 19.523L181.556 19.429L182.543 18.395L183.154 17.925L183.389 18.066C183.546 18.1913 183.64 18.2853 183.671 18.348L183.859 18.583L184.047 18.771C184.172 19.0843 184.282 19.3037 184.376 19.429L184.564 19.664L183.248 31.367L182.966 31.602ZM164.495 19.053L164.636 18.912C164.887 18.348 165.075 18.019 165.2 17.925L165.482 17.549L168.866 21.262L167.832 30.051L167.409 30.427L166.375 31.273L166.234 31.32L165.153 32.166L164.636 32.495L164.354 32.307L164.072 31.884L163.978 31.743L163.884 31.602L163.461 30.897L163.273 30.662L164.495 19.241V19.053ZM166.563 16.609L166.986 16.421L167.597 16.28H180.71L180.945 16.327C181.133 16.327 181.305 16.4053 181.462 16.562L182.026 16.891C182.12 16.9223 182.183 16.985 182.214 17.079C182.245 17.1417 182.277 17.1887 182.308 17.22C182.277 17.2513 182.23 17.3297 182.167 17.455C182.104 17.5803 181.995 17.737 181.838 17.925L180.851 19.053L180.804 19.194L179.582 20.463L179.112 20.98H169.806L166.14 16.938L166.563 16.609Z" fill="black"/>
</g>
<path opacity="0.2" d="M91.0102 50.496L90.7282 50.778L90.5402 50.966L90.3522 51.107L90.1172 51.201H89.9292H76.0642L75.3592 51.154L74.7952 50.872L74.4192 50.59L74.2782 50.449L77.7092 46.877H87.9082L91.1512 50.308L91.0102 50.496ZM74.0902 34.657L74.5602 34.234L74.7482 34.046L75.1712 33.811L75.4062 33.717C75.6255 33.8737 75.7978 34.0147 75.9232 34.14L76.8162 34.939L76.9102 35.033C77.1608 35.221 77.4585 35.5187 77.8032 35.926L78.2262 36.349L77.2862 46.266L73.7142 49.932L73.4792 49.697L73.2442 49.368L72.8682 48.71C72.7115 48.24 72.6018 47.958 72.5392 47.864L72.4452 47.676V47.441L73.9492 34.798L74.0902 34.657ZM92.7492 48.475C92.6552 48.663 92.3105 49.0547 91.7152 49.65C91.6838 49.6187 91.6212 49.5873 91.5272 49.556C91.4332 49.4933 91.2765 49.3367 91.0572 49.086L90.0702 48.052L89.9292 47.958L88.8012 46.783L88.3312 46.219L89.4592 36.02L89.7882 35.691C90.0702 35.4403 90.3522 35.174 90.6342 34.892L90.7282 34.751L90.8222 34.657L91.6212 33.999C91.7152 33.9363 91.8092 33.8893 91.9032 33.858C92.0285 33.7953 92.1068 33.7483 92.1382 33.717L92.5142 33.905L93.0782 34.234L93.1722 34.375L93.3602 34.422L93.9712 34.939L94.2062 35.127L92.8432 47.958L92.7492 48.475ZM93.8772 31.602L93.3602 32.072L93.2662 32.166L92.6082 32.636L92.2322 32.777C92.0128 32.6517 91.8405 32.5263 91.7152 32.401L91.0102 31.79L90.8692 31.696L90.7752 31.508L90.0232 30.709C89.9292 30.5837 89.8352 30.4897 89.7412 30.427C89.6785 30.3643 89.6472 30.3173 89.6472 30.286L90.8222 21.356L91.2452 20.839L92.2792 19.617L92.3732 19.523L92.4672 19.429L93.4542 18.395L94.0652 17.925L94.3002 18.066C94.4568 18.1913 94.5508 18.2853 94.5822 18.348L94.7702 18.583L94.9582 18.771C95.0835 19.0843 95.1932 19.3037 95.2872 19.429L95.4752 19.664L94.1592 31.367L93.8772 31.602ZM75.4062 19.053L75.5472 18.912C75.7978 18.348 75.9858 18.019 76.1112 17.925L76.3932 17.549L79.7772 21.262L78.7432 30.051L78.3202 30.427L77.2862 31.273L77.1452 31.32L76.0642 32.166L75.5472 32.495L75.2652 32.307L74.9832 31.884L74.8892 31.743L74.7952 31.602L74.3722 30.897L74.1842 30.662L75.4062 19.241V19.053ZM77.4742 16.609L77.8972 16.421L78.5082 16.28H91.6212L91.8562 16.327C92.0442 16.327 92.2165 16.4053 92.3732 16.562L92.9372 16.891C93.0312 16.9223 93.0938 16.985 93.1252 17.079C93.1565 17.1417 93.1878 17.1887 93.2192 17.22C93.1878 17.2513 93.1408 17.3297 93.0782 17.455C93.0155 17.5803 92.9058 17.737 92.7492 17.925L91.7622 19.053L91.7152 19.194L90.4932 20.463L90.0232 20.98H80.7172L77.0512 16.938L77.4742 16.609ZM118.59 48.475C118.496 48.663 118.151 49.0547 117.556 49.65C117.525 49.6187 117.462 49.5873 117.368 49.556C117.274 49.4933 117.117 49.3367 116.898 49.086L115.911 48.052L115.77 47.958L114.642 46.783L114.172 46.219L115.3 36.02L115.629 35.691C115.911 35.4403 116.193 35.174 116.475 34.892L116.569 34.751L116.663 34.657L117.462 33.999C117.556 33.9363 117.65 33.8893 117.744 33.858C117.869 33.7953 117.948 33.7483 117.979 33.717L118.355 33.905L118.919 34.234L119.013 34.375L119.201 34.422L119.812 34.939L120.047 35.127L118.684 47.958L118.59 48.475ZM119.718 31.602L119.201 32.072L119.107 32.166L118.449 32.636L118.073 32.777C117.854 32.6517 117.681 32.5263 117.556 32.401L116.851 31.79L116.71 31.696L116.616 31.508L115.864 30.709C115.77 30.5837 115.676 30.4897 115.582 30.427C115.519 30.3643 115.488 30.3173 115.488 30.286L116.663 21.356L117.086 20.839L118.12 19.617L118.214 19.523L118.308 19.429L119.295 18.395L119.906 17.925L120.141 18.066C120.298 18.1913 120.392 18.2853 120.423 18.348L120.611 18.583L120.799 18.771C120.924 19.0843 121.034 19.3037 121.128 19.429L121.316 19.664L120 31.367L119.718 31.602ZM125.866 37.336H130.942L130.378 42.036H125.49L125.866 37.336ZM126.618 24.599H131.694L131.13 29.252H126.242L126.618 24.599ZM154.258 50.496L153.976 50.778L153.788 50.966L153.6 51.107L153.365 51.201H153.177H139.312L138.607 51.154L138.043 50.872L137.667 50.59L137.526 50.449L140.957 46.877H151.156L154.399 50.308L154.258 50.496ZM155.997 48.475C155.903 48.663 155.559 49.0547 154.963 49.65C154.932 49.6187 154.869 49.5873 154.775 49.556C154.681 49.4933 154.525 49.3367 154.305 49.086L153.318 48.052L153.177 47.958L152.049 46.783L151.579 46.219L152.707 36.02L153.036 35.691C153.318 35.4403 153.6 35.174 153.882 34.892L153.976 34.751L154.07 34.657L154.869 33.999C154.963 33.9363 155.057 33.8893 155.151 33.858C155.277 33.7953 155.355 33.7483 155.386 33.717L155.762 33.905L156.326 34.234L156.42 34.375L156.608 34.422L157.219 34.939L157.454 35.127L156.091 47.958L155.997 48.475ZM154.258 33.623L153.506 34.328L153.412 34.469L152.566 35.127L152.19 35.503H141.662L141.286 35.221C140.942 34.939 140.691 34.6883 140.534 34.469L140.346 34.375L140.252 34.234C140.002 34.0773 139.798 33.9207 139.641 33.764C139.485 33.576 139.391 33.4507 139.359 33.388C139.359 33.3253 139.344 33.247 139.312 33.153C139.406 32.965 139.516 32.8397 139.641 32.777L140.534 32.025L140.628 31.884L141.615 31.179L141.991 30.85H152.519C152.676 30.944 152.786 31.0537 152.848 31.179L153.506 31.884L153.647 31.978L153.741 32.072C154.023 32.354 154.211 32.589 154.305 32.777C154.431 32.871 154.525 32.9963 154.587 33.153C154.462 33.3723 154.352 33.529 154.258 33.623ZM138.654 19.053L138.795 18.912C139.046 18.348 139.234 18.019 139.359 17.925L139.641 17.549L143.025 21.262L141.991 30.051L141.568 30.427L140.534 31.273L140.393 31.32L139.312 32.166L138.795 32.495L138.513 32.307L138.231 31.884L138.137 31.743L138.043 31.602L137.62 30.897L137.432 30.662L138.654 19.241V19.053ZM140.722 16.609L141.145 16.421L141.756 16.28H154.869L155.104 16.327C155.292 16.327 155.465 16.4053 155.621 16.562L156.185 16.891C156.279 16.9223 156.342 16.985 156.373 17.079C156.405 17.1417 156.436 17.1887 156.467 17.22C156.436 17.2513 156.389 17.3297 156.326 17.455C156.264 17.5803 156.154 17.737 155.997 17.925L155.01 19.053L154.963 19.194L153.741 20.463L153.271 20.98H143.965L140.299 16.938L140.722 16.609ZM180.099 50.496L179.817 50.778L179.629 50.966L179.441 51.107L179.206 51.201H179.018H165.153L164.448 51.154L163.884 50.872L163.508 50.59L163.367 50.449L166.798 46.877H176.997L180.24 50.308L180.099 50.496ZM163.179 34.657L163.649 34.234L163.837 34.046L164.26 33.811L164.495 33.717C164.714 33.8737 164.887 34.0147 165.012 34.14L165.905 34.939L165.999 35.033C166.25 35.221 166.547 35.5187 166.892 35.926L167.315 36.349L166.375 46.266L162.803 49.932L162.568 49.697L162.333 49.368L161.957 48.71C161.8 48.24 161.691 47.958 161.628 47.864L161.534 47.676V47.441L163.038 34.798L163.179 34.657ZM181.838 48.475C181.744 48.663 181.399 49.0547 180.804 49.65C180.773 49.6187 180.71 49.5873 180.616 49.556C180.522 49.4933 180.365 49.3367 180.146 49.086L179.159 48.052L179.018 47.958L177.89 46.783L177.42 46.219L178.548 36.02L178.877 35.691C179.159 35.4403 179.441 35.174 179.723 34.892L179.817 34.751L179.911 34.657L180.71 33.999C180.804 33.9363 180.898 33.8893 180.992 33.858C181.117 33.7953 181.196 33.7483 181.227 33.717L181.603 33.905L182.167 34.234L182.261 34.375L182.449 34.422L183.06 34.939L183.295 35.127L181.932 47.958L181.838 48.475ZM182.966 31.602L182.449 32.072L182.355 32.166L181.697 32.636L181.321 32.777C181.102 32.6517 180.929 32.5263 180.804 32.401L180.099 31.79L179.958 31.696L179.864 31.508L179.112 30.709C179.018 30.5837 178.924 30.4897 178.83 30.427C178.767 30.3643 178.736 30.3173 178.736 30.286L179.911 21.356L180.334 20.839L181.368 19.617L181.462 19.523L181.556 19.429L182.543 18.395L183.154 17.925L183.389 18.066C183.546 18.1913 183.64 18.2853 183.671 18.348L183.859 18.583L184.047 18.771C184.172 19.0843 184.282 19.3037 184.376 19.429L184.564 19.664L183.248 31.367L182.966 31.602ZM164.495 19.053L164.636 18.912C164.887 18.348 165.075 18.019 165.2 17.925L165.482 17.549L168.866 21.262L167.832 30.051L167.409 30.427L166.375 31.273L166.234 31.32L165.153 32.166L164.636 32.495L164.354 32.307L164.072 31.884L163.978 31.743L163.884 31.602L163.461 30.897L163.273 30.662L164.495 19.241V19.053ZM166.563 16.609L166.986 16.421L167.597 16.28H180.71L180.945 16.327C181.133 16.327 181.305 16.4053 181.462 16.562L182.026 16.891C182.12 16.9223 182.183 16.985 182.214 17.079C182.245 17.1417 182.277 17.1887 182.308 17.22C182.277 17.2513 182.23 17.3297 182.167 17.455C182.104 17.5803 181.995 17.737 181.838 17.925L180.851 19.053L180.804 19.194L179.582 20.463L179.112 20.98H169.806L166.14 16.938L166.563 16.609Z" fill="black"/>
</g>
<defs>
<filter id="filter0_d_1349_1643" x="43" y="-1" width="171" height="83" filterUnits="userSpaceOnUse" color-interpolation-filters="sRGB">
<feFlood flood-opacity="0" result="BackgroundImageFix"/>
<feColorMatrix in="SourceAlpha" type="matrix" values="0 0 0 0 0 0 0 0 0 0 0 0 0 0 0 0 0 0 127 0" result="hardAlpha"/>
<feOffset dy="7"/>
<feGaussianBlur stdDeviation="4"/>
<feComposite in2="hardAlpha" operator="out"/>
<feColorMatrix type="matrix" values="0 0 0 0 0 0 0 0 0 0 0 0 0 0 0 0 0 0 0.25 0"/>
<feBlend mode="normal" in2="BackgroundImageFix" result="effect1_dropShadow_1349_1643"/>
<feBlend mode="normal" in="SourceGraphic" in2="effect1_dropShadow_1349_1643" result="shape"/>
</filter>
<linearGradient id="paint0_linear_1349_1643" x1="127.5" y1="26" x2="127.5" y2="229" gradientUnits="userSpaceOnUse">
<stop stop-color="#889097"/>
<stop offset="0.995353" stop-color="#626F7A"/>
</linearGradient>
<linearGradient id="paint1_linear_1349_1643" x1="19" y1="49.8308" x2="168.978" y2="260.643" gradientUnits="userSpaceOnUse">
<stop stop-color="#21825E"/>
<stop offset="1" stop-color="#174316"/>
</linearGradient>
<linearGradient id="paint2_linear_1349_1643" x1="17" y1="49.8308" x2="166.06" y2="263.216" gradientUnits="userSpaceOnUse">
<stop stop-color="#21825E"/>
<stop offset="1" stop-color="#174316"/>
</linearGradient>
<linearGradient id="paint3_linear_1349_1643" x1="128.5" y1="1.92198e-07" x2="129.919" y2="65.0707" gradientUnits="userSpaceOnUse">
<stop stop-color="#FEFEFE"/>
<stop offset="1" stop-color="#C4CACE"/>
</linearGradient>
<clipPath id="clip0_1349_1643">
<rect width="256" height="256" fill="white"/>
</clipPath>
</defs>
</svg>
